# Blender 4.0.2
# www.blender.org
mtllib RadarBeam.mtl
o Triangle.001
v -456.395416 100.000000 263.499969
v -456.395416 -100.000000 263.499969
v -438.184479 100.000000 292.785553
v -438.184479 -100.000000 292.785553
v -418.097137 100.000000 320.817352
v -418.097137 -100.000000 320.817352
v -396.219452 100.000000 347.475403
v -396.219452 -100.000000 347.475403
v -372.645081 100.000000 372.645508
v -372.645081 -100.000000 372.645508
v -347.474976 100.000000 396.219818
v -347.474976 -100.000000 396.219818
v -320.816956 100.000000 418.097473
v -320.816956 -100.000000 418.097473
v -292.785095 100.000000 438.184784
v -292.785095 -100.000000 438.184784
v -263.499481 100.000000 456.395691
v -263.499481 -100.000000 456.395691
v -233.085510 100.000000 472.652222
v -233.085510 -100.000000 472.652222
v -201.673462 100.000000 486.884796
v -201.673462 -100.000000 486.884796
v -169.397812 100.000000 499.032471
v -169.397812 -100.000000 499.032471
v -136.396774 100.000000 509.043152
v -136.396774 -100.000000 509.043152
v -102.811615 100.000000 516.874023
v -102.811615 -100.000000 516.874023
v -68.786255 100.000000 522.491577
v -68.786255 -100.000000 522.491577
v -34.466293 100.000000 525.871704
v -34.466293 -100.000000 525.871704
v 0.001236 100.000000 527.000000
v 0.001236 -100.000000 527.000000
v 34.468735 100.000000 525.871582
v 34.468735 -100.000000 525.871582
v 68.788696 100.000000 522.491272
v 68.788696 -100.000000 522.491272
v 102.814041 100.000000 516.873535
v 102.814041 -100.000000 516.873535
v 136.399170 100.000000 509.042511
v 136.399170 -100.000000 509.042511
v 169.400146 100.000000 499.031647
v 169.400146 -100.000000 499.031647
v 201.675751 100.000000 486.883881
v 201.675751 -100.000000 486.883881
v 233.087769 100.000000 472.651154
v 233.087769 -100.000000 472.651154
v 263.501617 100.000000 456.394470
v 263.501617 -100.000000 456.394470
v 292.787109 100.000000 438.183441
v 292.787109 -100.000000 438.183441
v 320.818878 100.000000 418.095978
v 320.818878 -100.000000 418.095978
v 347.476807 100.000000 396.218201
v 347.476807 -100.000000 396.218201
v 372.646790 100.000000 372.643768
v 372.646790 -100.000000 372.643768
v 0.000000 0.000000 0.000000
v 396.221100 100.000000 347.473572
v 396.221100 -100.000000 347.473572
v 418.098633 100.000000 320.815430
v 418.098633 -100.000000 320.815430
v 438.185852 100.000000 292.783508
v 438.185852 -100.000000 292.783508
v 456.396667 100.000000 263.497864
v 456.396667 -100.000000 263.497864
vn 0.8492 -0.0000 -0.5281
vn 0.8128 -0.0000 -0.5825
vn 0.7730 -0.0000 -0.6344
vn 0.7299 -0.0000 -0.6836
vn 0.6836 -0.0000 -0.7299
vn 0.6344 -0.0000 -0.7730
vn 0.5825 -0.0000 -0.8128
vn 0.5281 -0.0000 -0.8492
vn 0.4714 -0.0000 -0.8819
vn 0.4127 -0.0000 -0.9109
vn 0.3522 -0.0000 -0.9359
vn 0.2903 -0.0000 -0.9569
vn 0.2271 -0.0000 -0.9739
vn 0.1629 -0.0000 -0.9866
vn 0.0980 -0.0000 -0.9952
vn 0.0327 -0.0000 -0.9995
vn -0.0327 -0.0000 -0.9995
vn -0.0980 -0.0000 -0.9952
vn -0.1629 -0.0000 -0.9866
vn -0.2271 -0.0000 -0.9739
vn -0.2903 -0.0000 -0.9569
vn -0.3523 -0.0000 -0.9359
vn -0.4127 -0.0000 -0.9109
vn -0.4714 -0.0000 -0.8819
vn -0.5281 -0.0000 -0.8492
vn -0.5825 -0.0000 -0.8128
vn -0.6344 -0.0000 -0.7730
vn -0.6836 -0.0000 -0.7299
vn -0.7299 -0.0000 -0.6836
vn -0.7730 -0.0000 -0.6344
vn -0.8128 -0.0000 -0.5825
vn -0.8492 -0.0000 -0.5281
vn -0.0000 1.0000 -0.0000
vn -0.5000 -0.0000 -0.8660
vn -0.0000 -0.9349 -0.3548
vn -0.0000 -1.0000 -0.0000
vn -0.0000 0.9349 -0.3548
vn 0.5000 -0.0000 -0.8660
s 0
f 2//1 1//1 3//1 4//1
f 4//2 3//2 5//2 6//2
f 6//3 5//3 7//3 8//3
f 8//4 7//4 9//4 10//4
f 10//5 9//5 11//5 12//5
f 12//6 11//6 13//6 14//6
f 14//7 13//7 15//7 16//7
f 16//8 15//8 17//8 18//8
f 18//9 17//9 19//9 20//9
f 20//10 19//10 21//10 22//10
f 22//11 21//11 23//11 24//11
f 24//12 23//12 25//12 26//12
f 26//13 25//13 27//13 28//13
f 28//14 27//14 29//14 30//14
f 30//15 29//15 31//15 32//15
f 32//16 31//16 33//16 34//16
f 34//17 33//17 35//17 36//17
f 36//18 35//18 37//18 38//18
f 38//19 37//19 39//19 40//19
f 40//20 39//20 41//20 42//20
f 42//21 41//21 43//21 44//21
f 44//22 43//22 45//22 46//22
f 46//23 45//23 47//23 48//23
f 48//24 47//24 49//24 50//24
f 50//25 49//25 51//25 52//25
f 52//26 51//26 53//26 54//26
f 54//27 53//27 55//27 56//27
f 56//28 55//28 57//28 58//28
f 58//29 57//29 60//29 61//29
f 61//30 60//30 62//30 63//30
f 63//31 62//31 64//31 65//31
f 65//32 64//32 66//32 67//32
f 66//33 1//33 3//33 64//33
f 1//34 59//34 2//34
f 59//35 67//35 2//35
f 67//36 65//36 63//36
f 67//36 63//36 61//36
f 67//36 61//36 58//36
f 67//36 58//36 56//36
f 67//36 56//36 54//36
f 67//36 54//36 52//36
f 67//36 52//36 50//36
f 67//36 50//36 48//36
f 67//36 48//36 46//36
f 67//36 46//36 44//36
f 67//36 44//36 42//36
f 67//36 42//36 40//36
f 67//36 40//36 38//36
f 67//36 38//36 36//36
f 67//36 36//36 34//36
f 67//36 34//36 32//36
f 67//36 32//36 30//36
f 67//36 30//36 28//36
f 67//36 28//36 26//36
f 67//36 26//36 24//36
f 67//36 24//36 22//36
f 67//36 22//36 20//36
f 67//36 20//36 18//36
f 67//36 18//36 16//36
f 67//36 16//36 14//36
f 67//36 14//36 12//36
f 67//36 12//36 10//36
f 67//36 10//36 8//36
f 67//36 8//36 6//36
f 67//36 6//36 4//36
f 67//36 4//36 2//36
f 3//33 5//33 7//33
f 3//33 7//33 9//33
f 3//33 9//33 11//33
f 3//33 11//33 13//33
f 3//33 13//33 15//33
f 3//33 15//33 17//33
f 3//33 17//33 19//33
f 3//33 19//33 21//33
f 3//33 21//33 23//33
f 3//33 23//33 25//33
f 3//33 25//33 27//33
f 3//33 27//33 29//33
f 3//33 29//33 31//33
f 3//33 31//33 33//33
f 3//33 33//33 35//33
f 3//33 35//33 37//33
f 3//33 37//33 39//33
f 3//33 39//33 41//33
f 3//33 41//33 43//33
f 3//33 43//33 45//33
f 3//33 45//33 47//33
f 3//33 47//33 49//33
f 3//33 49//33 51//33
f 3//33 51//33 53//33
f 3//33 53//33 55//33
f 3//33 55//33 57//33
f 3//33 57//33 60//33
f 3//33 60//33 62//33
f 3//33 62//33 64//33
f 66//37 59//37 1//37
f 66//38 67//38 59//38
